<svg width="317" height="317" viewBox="0 0 317 317" fill="none" xmlns="http://www.w3.org/2000/svg">
<rect x="3" y="43" width="314" height="256" fill="#55BBC4"/>
<path d="M290.59 29.7188H247.656V9.90625C247.656 4.42809 243.228 0 237.75 0C232.272 0 227.844 4.42809 227.844 9.90625V29.7188H168.406V9.90625C168.406 4.42809 163.968 0 158.5 0C153.032 0 148.594 4.42809 148.594 9.90625V29.7188H89.1562V9.90625C89.1562 4.42809 84.7182 0 79.25 0C73.7818 0 69.3438 4.42809 69.3438 9.90625V29.7188H26.42C11.8281 29.7188 0 41.5369 0 56.1288V290.58C0 305.172 11.8281 317 26.42 317H290.59C305.182 317 317 305.172 317 290.58V56.1288C317 41.5369 305.182 29.7188 290.59 29.7188ZM297.188 290.58C297.188 294.226 294.226 297.188 290.59 297.188H26.42C22.7745 297.188 19.8125 294.226 19.8125 290.58V56.1288C19.8125 52.4932 22.7745 49.5312 26.42 49.5312H69.3438V69.3438C69.3438 74.8219 73.7818 79.25 79.25 79.25C84.7182 79.25 89.1562 74.8219 89.1562 69.3438V49.5312H148.594V69.3438C148.594 74.8219 153.032 79.25 158.5 79.25C163.968 79.25 168.406 74.8219 168.406 69.3438V49.5312H227.844V69.3438C227.844 74.8219 232.272 79.25 237.75 79.25C243.228 79.25 247.656 74.8219 247.656 69.3438V49.5312H290.59C294.226 49.5312 297.188 52.4932 297.188 56.1288V290.58Z" fill="#144F6D"/>
<path d="M108.969 118.875H69.3438V148.594H108.969V118.875Z" fill="#144F6D"/>
<path d="M108.969 168.406H69.3438V198.125H108.969V168.406Z" fill="#144F6D"/>
<path d="M108.969 217.938H69.3438V247.656H108.969V217.938Z" fill="#144F6D"/>
<path d="M178.312 217.938H138.688V247.656H178.312V217.938Z" fill="#144F6D"/>
<path d="M178.312 168.406H138.688V198.125H178.312V168.406Z" fill="#144F6D"/>
<path d="M178.312 118.875H138.688V148.594H178.312V118.875Z" fill="#144F6D"/>
<path d="M247.656 217.938H208.031V247.656H247.656V217.938Z" fill="#144F6D"/>
<path d="M247.656 168.406H208.031V198.125H247.656V168.406Z" fill="#144F6D"/>
<path d="M247.656 118.875H208.031V148.594H247.656V118.875Z" fill="#144F6D"/>
</svg>
