<svg width="382" height="342" viewBox="0 0 382 342" fill="none" xmlns="http://www.w3.org/2000/svg">
<path d="M191 11.5L45.5 115L51 331H149.5V243L166 195H199.5L220 208.5L229.5 230.5V331H333.5V115L191 11.5Z" fill="#55BBC4" stroke="black"/>
<path d="M377.937 135.235L196.864 2.65659C193.372 0.100473 188.628 0.100473 185.138 2.65659L4.06242 135.235C-0.36042 138.474 -1.32139 144.684 1.9174 149.107C5.1562 153.53 11.3674 154.49 15.7895 151.252L191 22.966L366.21 151.252C367.977 152.546 370.03 153.169 372.066 153.169C375.122 153.169 378.137 151.763 380.082 149.107C383.321 144.684 382.36 138.474 377.937 135.235Z" fill="#144F6D"/>
<path d="M329.957 109C324.476 109 320.032 113.444 320.032 118.925V321.409H240.631V235.171C240.631 207.804 218.366 185.541 191.001 185.541C163.636 185.541 141.371 207.806 141.371 235.171V321.41H61.9692V120.425C61.9692 114.944 57.5247 110.5 52.0439 110.5C46.5631 110.5 42.1187 114.944 42.1187 120.425V331.336C42.1187 336.817 46.5631 341.261 52.0439 341.261H151.296C156.516 341.261 160.787 337.228 161.183 332.109C161.206 331.876 161.221 331.623 161.221 331.336V235.172C161.221 218.751 174.58 205.392 191.001 205.392C207.422 205.392 220.781 218.752 220.781 235.172V331.336C220.781 331.621 220.795 331.871 220.819 332.1C221.21 337.223 225.483 341.261 230.706 341.261H329.958C335.439 341.261 339.883 336.817 339.883 331.336V118.926C339.882 113.444 335.439 109 329.957 109Z" fill="#144F6D"/>
</svg>
