<svg width="413" height="301" viewBox="0 0 413 301" fill="none" xmlns="http://www.w3.org/2000/svg">
<path d="M206 153.5L72.5 221L48 191L67.5 173.5L8.5 143.5L29 110L104.5 130L156 95.5L104.5 60L72.5 30.5L90.5 17L131.5 30.5L218 72.5L356.5 8.5H395.5L406 30.5L395.5 67.5L299 110H284.5L214.5 290.5H195L189 281L206 153.5Z" fill="#55BBC4"/>
<path d="M68.4248 228.304C69.6187 228.314 70.7941 228.059 71.8742 227.569L71.8842 227.564L193.001 170.993L182.053 285.454L182.053 285.456C181.809 288.059 182.812 290.62 184.761 292.36L184.775 292.372L184.789 292.384C190.339 296.979 197.256 299.595 204.453 299.831L204.47 299.831L204.487 299.831C206.493 299.829 208.488 299.576 210.433 299.081L210.438 299.08C220.869 296.358 228.767 287.103 234.084 271.806L234.087 271.797L282.236 129.222L377.481 84.7935L377.058 83.8873L377.481 84.7935C391.724 78.1479 402.56 68.0674 408.603 56.9574C414.648 45.8431 415.912 33.6493 410.878 22.9077L410.871 22.893L410.864 22.8785C405.186 11.7203 394.313 4.12861 381.884 2.63577C368.242 0.580014 354.301 2.7266 341.91 8.7916C341.908 8.79285 341.905 8.7941 341.903 8.79534L231.946 60.3549L113.69 14.101L113.69 14.1009L113.678 14.0964C98.6081 8.42025 86.3641 8.4485 77.6633 14.73L77.6383 14.7481L77.6144 14.7677C70.4137 20.676 66.3169 29.5569 66.4921 38.8699L66.4925 38.8828C66.5749 41.4851 67.8852 43.8909 70.0248 45.3773L70.0289 45.3801L148.495 99.3205L104.634 120.077L28.2556 100.675L28.2481 100.673C24.6676 99.7926 20.9418 101.407 19.1282 104.617L19.1247 104.623L0.000491856 139.05L0.000457639 139.05L-0.00377044 139.058C-1.1336 141.134 -1.31142 143.6 -0.491205 145.818C0.323543 148.036 2.05416 149.792 4.25868 150.642L58.9348 173.223L48.8146 177.891L48.8087 177.893C44.7609 179.793 42.9753 184.574 44.779 188.66L44.7831 188.669L44.7873 188.678L61.0253 223.536C61.0258 223.537 61.0262 223.538 61.0266 223.539C61.9352 225.514 63.5914 227.051 65.6285 227.81L65.6363 227.813C66.5281 228.137 67.4735 228.304 68.4248 228.304ZM68.4248 228.304C68.4236 228.304 68.4225 228.304 68.4214 228.304L68.43 227.304V228.304C68.4283 228.304 68.4265 228.304 68.4248 228.304ZM277.95 89.9244C277.95 89.925 277.95 89.9256 277.949 89.9262L218.553 266.667C218.552 266.669 218.551 266.672 218.551 266.674C216.802 271.634 214.858 275.539 212.782 278.344C210.712 281.142 208.568 282.771 206.426 283.347C203.846 283.835 201.184 283.398 198.898 282.128L213.274 131.186L213.274 131.185C213.704 126.651 210.379 122.626 205.84 122.196C201.304 121.761 197.28 125.092 196.847 129.625L196.847 129.626L194.667 152.224L72.2293 209.303L62.9077 189.458L82.3405 180.362C85.3163 179.045 87.2343 176.099 87.2343 172.847C87.2343 169.59 85.3119 166.64 82.3289 165.328L82.319 165.323L82.3091 165.319L18.7542 138.973L30.3855 118.317L103.479 136.464C103.479 136.464 103.479 136.464 103.48 136.464C105.291 136.922 107.203 136.749 108.905 135.975L108.914 135.971L348.902 23.8787L348.912 23.8742L348.921 23.8695C358.281 19.2527 368.823 17.5719 379.156 19.0532L379.181 19.0568L379.206 19.0591C386.253 19.7081 392.532 23.7686 396.02 29.9242C398.831 35.9936 397.52 43.6012 392.893 50.9684C388.269 58.3311 380.413 65.3 370.499 69.9186L370.497 69.9196L289.473 107.903L293.776 95.179L293.778 95.1739C295.229 90.8044 292.858 86.0841 288.489 84.6355L288.489 84.6354C284.116 83.1873 279.399 85.5565 277.95 89.9244ZM277.95 89.9244L277.951 89.9223L278.898 90.2409L277.95 89.9244ZM165.818 91.2586L83.3764 34.7789C83.8729 32.2237 85.2299 29.9143 87.2306 28.2396C89.0329 26.9564 91.6695 26.3423 95.1703 26.5415C98.6793 26.7412 102.958 27.7536 107.915 29.6072C107.917 29.608 107.919 29.6089 107.922 29.6097L211.4 69.9697L165.818 91.2586Z" fill="#144F6D" stroke="#144F6D" stroke-width="2"/>
</svg>
