<svg width="343" height="343" viewBox="0 0 343 343" fill="none" xmlns="http://www.w3.org/2000/svg">
<ellipse cx="177" cy="171.5" rx="166" ry="171.5" fill="#55BBC4"/>
<mask id="path-2-outside-1" maskUnits="userSpaceOnUse" x="-3" y="-1.96436" width="348" height="347" fill="black">
<rect fill="white" x="-3" y="-1.96436" width="348" height="347"/>
<path d="M171.561 0.0356464C102.939 0.0256443 40.9207 40.9292 13.9115 104.012L11.7739 104.72L12.6026 107.207C-22.9591 194.915 19.3133 294.845 107.022 330.407C127.507 338.713 149.405 342.976 171.51 342.964C266.207 342.978 342.986 266.222 343 171.526C343.014 76.8288 266.258 0.0492206 171.561 0.0356464ZM306.055 257.949L297.25 249.15V228.655C297.26 227.77 297.065 226.896 296.679 226.1L274.389 181.582V160.069C274.389 158.159 273.435 156.374 271.845 155.314L254.699 143.883C253.355 142.985 251.694 142.699 250.126 143.094L229.128 148.341L193.857 133.206L189.005 99.2106L202.454 85.7678H231.322L241.039 100.371C241.916 101.684 243.299 102.576 244.857 102.834L279.15 108.55C280.068 108.704 281.01 108.629 281.893 108.332L313.477 97.8046C339.967 148.64 337.134 209.782 306.055 257.949ZM282.482 56.3559L273.188 62.5515L247.28 57.3676L230.471 51.7721C229.442 51.4228 228.335 51.3785 227.282 51.6464L206.031 56.9561L196.715 53.8526L203.62 40.044H222.949C223.836 40.0447 224.71 39.8396 225.504 39.4438L245.28 29.5561C258.898 36.6647 271.427 45.6894 282.482 56.3559ZM108.908 24.2293L122.626 33.374C123.3 33.8227 124.062 34.1227 124.86 34.2542L152.557 38.8723L149.854 46.9597L135.422 51.7778C134.13 52.2079 133.033 53.0853 132.33 54.2527L115.916 81.6069L89.5501 97.4273L50.6848 102.977C47.8678 103.375 45.7731 105.785 45.7695 108.63V125.776C45.7695 127.292 46.3725 128.745 47.4442 129.817L57.2005 139.573V149.392L33.4241 133.538L24.7994 107.664C41.2086 70.1702 71.2841 40.3355 108.908 24.2293ZM92.6364 211.623L66.8025 206.45L57.2005 187.297V173.866L78.4963 152.57L86.378 168.339C87.346 170.277 89.3272 171.501 91.4933 171.5H128.267L143.75 197.305C144.783 199.025 146.642 200.077 148.648 200.077H164.537L160.536 220.121L138.897 241.76C137.824 242.831 137.219 244.284 137.217 245.801V260.09L116.641 275.522C115.203 276.601 114.355 278.295 114.355 280.094V300.738L107.245 298.383L97.2088 273.281V217.224C97.2095 214.507 95.2977 212.166 92.6364 211.623ZM75.4557 299.484C21.5666 259.055 -1.22312 189.201 18.4553 124.77L23.2048 139.013C23.6049 140.218 24.3951 141.256 25.451 141.962L53.9427 160.955L47.4442 167.459C46.3725 168.531 45.7695 169.984 45.7695 171.5V188.646C45.7688 189.533 45.9738 190.407 46.3696 191.201L57.8006 214.063C58.5922 215.642 60.0689 216.766 61.8014 217.109L85.8064 221.905V274.378C85.8057 275.104 85.9436 275.824 86.2122 276.499L97.6432 305.076C98.269 306.637 99.5507 307.844 101.147 308.374L118.293 314.09C118.866 314.284 119.466 314.384 120.071 314.387C123.227 314.387 125.786 311.828 125.786 308.671V282.952L146.362 267.52C147.801 266.44 148.648 264.746 148.648 262.948V248.167L169.835 226.98C170.632 226.182 171.175 225.165 171.396 224.059L177.111 195.482C177.73 192.386 175.722 189.376 172.627 188.757C172.259 188.683 171.885 188.646 171.51 188.646H151.883L136.4 162.841C135.367 161.121 133.508 160.07 131.502 160.069H95.0255L85.2063 140.368C84.384 138.723 82.8208 137.574 81.0054 137.281C79.1908 136.968 77.3382 137.566 76.0501 138.882L68.6314 146.272V137.207C68.6314 135.691 68.0284 134.238 66.9568 133.166L57.2005 123.41V113.585L92.3049 108.573C93.0587 108.463 93.7838 108.205 94.4368 107.812L123.014 90.6659C123.816 90.1844 124.487 89.5128 124.969 88.7112L141.029 61.9457L156.17 56.8932C157.879 56.3324 159.221 54.9914 159.782 53.281L165.497 36.1346C166.488 33.1375 164.861 29.9047 161.864 28.9145C161.587 28.8231 161.304 28.7531 161.016 28.7045L127.935 23.189L122.123 19.3139C158.089 7.60722 197.045 9.0561 232.043 23.4005L221.6 28.613H200.087C197.91 28.6009 195.917 29.8268 194.943 31.7737L183.512 54.6356C182.104 57.4605 183.252 60.8926 186.077 62.3008C186.318 62.4208 186.567 62.5237 186.822 62.6087L203.968 68.3242C204.997 68.6735 206.104 68.7178 207.157 68.4499L228.408 63.1402L243.977 68.3242C244.199 68.4042 244.429 68.4656 244.662 68.507L273.24 74.2225C274.726 74.5254 276.272 74.2211 277.532 73.3766L290.54 64.7005C296.943 71.8313 302.696 79.5186 307.733 87.671L279.613 97.0444L249.166 91.9691L239.107 76.8802C238.052 75.2992 236.281 74.3461 234.38 74.3368H200.087C198.571 74.3368 197.118 74.9398 196.047 76.0115L178.9 93.1579C177.627 94.4303 177.028 96.2285 177.283 98.0103L182.998 138.019C183.286 139.997 184.586 141.681 186.427 142.46L226.436 159.606C227.582 160.103 228.861 160.205 230.071 159.897L250.481 154.794L262.958 163.127V182.931C262.948 183.815 263.143 184.69 263.529 185.486L285.82 230.004V251.517C285.82 253.033 286.422 254.486 287.494 255.557L299.451 267.52C246.423 338.201 146.137 352.513 75.4557 299.484Z"/>
</mask>
<path d="M171.561 0.0356464C102.939 0.0256443 40.9207 40.9292 13.9115 104.012L11.7739 104.72L12.6026 107.207C-22.9591 194.915 19.3133 294.845 107.022 330.407C127.507 338.713 149.405 342.976 171.51 342.964C266.207 342.978 342.986 266.222 343 171.526C343.014 76.8288 266.258 0.0492206 171.561 0.0356464ZM306.055 257.949L297.25 249.15V228.655C297.26 227.77 297.065 226.896 296.679 226.1L274.389 181.582V160.069C274.389 158.159 273.435 156.374 271.845 155.314L254.699 143.883C253.355 142.985 251.694 142.699 250.126 143.094L229.128 148.341L193.857 133.206L189.005 99.2106L202.454 85.7678H231.322L241.039 100.371C241.916 101.684 243.299 102.576 244.857 102.834L279.15 108.55C280.068 108.704 281.01 108.629 281.893 108.332L313.477 97.8046C339.967 148.64 337.134 209.782 306.055 257.949ZM282.482 56.3559L273.188 62.5515L247.28 57.3676L230.471 51.7721C229.442 51.4228 228.335 51.3785 227.282 51.6464L206.031 56.9561L196.715 53.8526L203.62 40.044H222.949C223.836 40.0447 224.71 39.8396 225.504 39.4438L245.28 29.5561C258.898 36.6647 271.427 45.6894 282.482 56.3559ZM108.908 24.2293L122.626 33.374C123.3 33.8227 124.062 34.1227 124.86 34.2542L152.557 38.8723L149.854 46.9597L135.422 51.7778C134.13 52.2079 133.033 53.0853 132.33 54.2527L115.916 81.6069L89.5501 97.4273L50.6848 102.977C47.8678 103.375 45.7731 105.785 45.7695 108.63V125.776C45.7695 127.292 46.3725 128.745 47.4442 129.817L57.2005 139.573V149.392L33.4241 133.538L24.7994 107.664C41.2086 70.1702 71.2841 40.3355 108.908 24.2293ZM92.6364 211.623L66.8025 206.45L57.2005 187.297V173.866L78.4963 152.57L86.378 168.339C87.346 170.277 89.3272 171.501 91.4933 171.5H128.267L143.75 197.305C144.783 199.025 146.642 200.077 148.648 200.077H164.537L160.536 220.121L138.897 241.76C137.824 242.831 137.219 244.284 137.217 245.801V260.09L116.641 275.522C115.203 276.601 114.355 278.295 114.355 280.094V300.738L107.245 298.383L97.2088 273.281V217.224C97.2095 214.507 95.2977 212.166 92.6364 211.623ZM75.4557 299.484C21.5666 259.055 -1.22312 189.201 18.4553 124.77L23.2048 139.013C23.6049 140.218 24.3951 141.256 25.451 141.962L53.9427 160.955L47.4442 167.459C46.3725 168.531 45.7695 169.984 45.7695 171.5V188.646C45.7688 189.533 45.9738 190.407 46.3696 191.201L57.8006 214.063C58.5922 215.642 60.0689 216.766 61.8014 217.109L85.8064 221.905V274.378C85.8057 275.104 85.9436 275.824 86.2122 276.499L97.6432 305.076C98.269 306.637 99.5507 307.844 101.147 308.374L118.293 314.09C118.866 314.284 119.466 314.384 120.071 314.387C123.227 314.387 125.786 311.828 125.786 308.671V282.952L146.362 267.52C147.801 266.44 148.648 264.746 148.648 262.948V248.167L169.835 226.98C170.632 226.182 171.175 225.165 171.396 224.059L177.111 195.482C177.73 192.386 175.722 189.376 172.627 188.757C172.259 188.683 171.885 188.646 171.51 188.646H151.883L136.4 162.841C135.367 161.121 133.508 160.07 131.502 160.069H95.0255L85.2063 140.368C84.384 138.723 82.8208 137.574 81.0054 137.281C79.1908 136.968 77.3382 137.566 76.0501 138.882L68.6314 146.272V137.207C68.6314 135.691 68.0284 134.238 66.9568 133.166L57.2005 123.41V113.585L92.3049 108.573C93.0587 108.463 93.7838 108.205 94.4368 107.812L123.014 90.6659C123.816 90.1844 124.487 89.5128 124.969 88.7112L141.029 61.9457L156.17 56.8932C157.879 56.3324 159.221 54.9914 159.782 53.281L165.497 36.1346C166.488 33.1375 164.861 29.9047 161.864 28.9145C161.587 28.8231 161.304 28.7531 161.016 28.7045L127.935 23.189L122.123 19.3139C158.089 7.60722 197.045 9.0561 232.043 23.4005L221.6 28.613H200.087C197.91 28.6009 195.917 29.8268 194.943 31.7737L183.512 54.6356C182.104 57.4605 183.252 60.8926 186.077 62.3008C186.318 62.4208 186.567 62.5237 186.822 62.6087L203.968 68.3242C204.997 68.6735 206.104 68.7178 207.157 68.4499L228.408 63.1402L243.977 68.3242C244.199 68.4042 244.429 68.4656 244.662 68.507L273.24 74.2225C274.726 74.5254 276.272 74.2211 277.532 73.3766L290.54 64.7005C296.943 71.8313 302.696 79.5186 307.733 87.671L279.613 97.0444L249.166 91.9691L239.107 76.8802C238.052 75.2992 236.281 74.3461 234.38 74.3368H200.087C198.571 74.3368 197.118 74.9398 196.047 76.0115L178.9 93.1579C177.627 94.4303 177.028 96.2285 177.283 98.0103L182.998 138.019C183.286 139.997 184.586 141.681 186.427 142.46L226.436 159.606C227.582 160.103 228.861 160.205 230.071 159.897L250.481 154.794L262.958 163.127V182.931C262.948 183.815 263.143 184.69 263.529 185.486L285.82 230.004V251.517C285.82 253.033 286.422 254.486 287.494 255.557L299.451 267.52C246.423 338.201 146.137 352.513 75.4557 299.484Z" fill="#144F6D"/>
<path d="M171.561 0.0356464C102.939 0.0256443 40.9207 40.9292 13.9115 104.012L11.7739 104.72L12.6026 107.207C-22.9591 194.915 19.3133 294.845 107.022 330.407C127.507 338.713 149.405 342.976 171.51 342.964C266.207 342.978 342.986 266.222 343 171.526C343.014 76.8288 266.258 0.0492206 171.561 0.0356464ZM306.055 257.949L297.25 249.15V228.655C297.26 227.77 297.065 226.896 296.679 226.1L274.389 181.582V160.069C274.389 158.159 273.435 156.374 271.845 155.314L254.699 143.883C253.355 142.985 251.694 142.699 250.126 143.094L229.128 148.341L193.857 133.206L189.005 99.2106L202.454 85.7678H231.322L241.039 100.371C241.916 101.684 243.299 102.576 244.857 102.834L279.15 108.55C280.068 108.704 281.01 108.629 281.893 108.332L313.477 97.8046C339.967 148.64 337.134 209.782 306.055 257.949ZM282.482 56.3559L273.188 62.5515L247.28 57.3676L230.471 51.7721C229.442 51.4228 228.335 51.3785 227.282 51.6464L206.031 56.9561L196.715 53.8526L203.62 40.044H222.949C223.836 40.0447 224.71 39.8396 225.504 39.4438L245.28 29.5561C258.898 36.6647 271.427 45.6894 282.482 56.3559ZM108.908 24.2293L122.626 33.374C123.3 33.8227 124.062 34.1227 124.86 34.2542L152.557 38.8723L149.854 46.9597L135.422 51.7778C134.13 52.2079 133.033 53.0853 132.33 54.2527L115.916 81.6069L89.5501 97.4273L50.6848 102.977C47.8678 103.375 45.7731 105.785 45.7695 108.63V125.776C45.7695 127.292 46.3725 128.745 47.4442 129.817L57.2005 139.573V149.392L33.4241 133.538L24.7994 107.664C41.2086 70.1702 71.2841 40.3355 108.908 24.2293ZM92.6364 211.623L66.8025 206.45L57.2005 187.297V173.866L78.4963 152.57L86.378 168.339C87.346 170.277 89.3272 171.501 91.4933 171.5H128.267L143.75 197.305C144.783 199.025 146.642 200.077 148.648 200.077H164.537L160.536 220.121L138.897 241.76C137.824 242.831 137.219 244.284 137.217 245.801V260.09L116.641 275.522C115.203 276.601 114.355 278.295 114.355 280.094V300.738L107.245 298.383L97.2088 273.281V217.224C97.2095 214.507 95.2977 212.166 92.6364 211.623ZM75.4557 299.484C21.5666 259.055 -1.22312 189.201 18.4553 124.77L23.2048 139.013C23.6049 140.218 24.3951 141.256 25.451 141.962L53.9427 160.955L47.4442 167.459C46.3725 168.531 45.7695 169.984 45.7695 171.5V188.646C45.7688 189.533 45.9738 190.407 46.3696 191.201L57.8006 214.063C58.5922 215.642 60.0689 216.766 61.8014 217.109L85.8064 221.905V274.378C85.8057 275.104 85.9436 275.824 86.2122 276.499L97.6432 305.076C98.269 306.637 99.5507 307.844 101.147 308.374L118.293 314.09C118.866 314.284 119.466 314.384 120.071 314.387C123.227 314.387 125.786 311.828 125.786 308.671V282.952L146.362 267.52C147.801 266.44 148.648 264.746 148.648 262.948V248.167L169.835 226.98C170.632 226.182 171.175 225.165 171.396 224.059L177.111 195.482C177.73 192.386 175.722 189.376 172.627 188.757C172.259 188.683 171.885 188.646 171.51 188.646H151.883L136.4 162.841C135.367 161.121 133.508 160.07 131.502 160.069H95.0255L85.2063 140.368C84.384 138.723 82.8208 137.574 81.0054 137.281C79.1908 136.968 77.3382 137.566 76.0501 138.882L68.6314 146.272V137.207C68.6314 135.691 68.0284 134.238 66.9568 133.166L57.2005 123.41V113.585L92.3049 108.573C93.0587 108.463 93.7838 108.205 94.4368 107.812L123.014 90.6659C123.816 90.1844 124.487 89.5128 124.969 88.7112L141.029 61.9457L156.17 56.8932C157.879 56.3324 159.221 54.9914 159.782 53.281L165.497 36.1346C166.488 33.1375 164.861 29.9047 161.864 28.9145C161.587 28.8231 161.304 28.7531 161.016 28.7045L127.935 23.189L122.123 19.3139C158.089 7.60722 197.045 9.0561 232.043 23.4005L221.6 28.613H200.087C197.91 28.6009 195.917 29.8268 194.943 31.7737L183.512 54.6356C182.104 57.4605 183.252 60.8926 186.077 62.3008C186.318 62.4208 186.567 62.5237 186.822 62.6087L203.968 68.3242C204.997 68.6735 206.104 68.7178 207.157 68.4499L228.408 63.1402L243.977 68.3242C244.199 68.4042 244.429 68.4656 244.662 68.507L273.24 74.2225C274.726 74.5254 276.272 74.2211 277.532 73.3766L290.54 64.7005C296.943 71.8313 302.696 79.5186 307.733 87.671L279.613 97.0444L249.166 91.9691L239.107 76.8802C238.052 75.2992 236.281 74.3461 234.38 74.3368H200.087C198.571 74.3368 197.118 74.9398 196.047 76.0115L178.9 93.1579C177.627 94.4303 177.028 96.2285 177.283 98.0103L182.998 138.019C183.286 139.997 184.586 141.681 186.427 142.46L226.436 159.606C227.582 160.103 228.861 160.205 230.071 159.897L250.481 154.794L262.958 163.127V182.931C262.948 183.815 263.143 184.69 263.529 185.486L285.82 230.004V251.517C285.82 253.033 286.422 254.486 287.494 255.557L299.451 267.52C246.423 338.201 146.137 352.513 75.4557 299.484Z" stroke="#144F6D" stroke-width="4" mask="url(#path-2-outside-1)"/>
</svg>
